<mxfile host="app.diagrams.net" agent="Mozilla/5.0 (Windows NT 10.0; Win64; x64) AppleWebKit/537.36 (KHTML, like Gecko) Chrome/128.0.0.0 Safari/537.36" version="24.7.14">
  <diagram name="Página-1" id="xcfo67iYvoDcu8b7ME0A">
    <mxGraphModel dx="1434" dy="780" grid="1" gridSize="10" guides="1" tooltips="1" connect="1" arrows="1" fold="1" page="1" pageScale="1" pageWidth="827" pageHeight="1169" math="0" shadow="0">
      <root>
        <mxCell id="0" />
        <mxCell id="1" parent="0" />
        <mxCell id="DmJgV8g3n5MHpVQbFM_g-1" value="" style="rounded=0;whiteSpace=wrap;html=1;" vertex="1" parent="1">
          <mxGeometry width="820" height="200" as="geometry" />
        </mxCell>
        <mxCell id="DmJgV8g3n5MHpVQbFM_g-2" value="" style="rounded=0;whiteSpace=wrap;html=1;" vertex="1" parent="1">
          <mxGeometry y="200" width="820" height="40" as="geometry" />
        </mxCell>
        <mxCell id="DmJgV8g3n5MHpVQbFM_g-3" value="&lt;font style=&quot;font-size: 32px;&quot;&gt;PORTIFOLIO DE KAYKE RIOS DE PAULA&lt;/font&gt;" style="text;html=1;align=center;verticalAlign=middle;whiteSpace=wrap;rounded=0;" vertex="1" parent="1">
          <mxGeometry x="60" width="690" height="252.5" as="geometry" />
        </mxCell>
        <mxCell id="DmJgV8g3n5MHpVQbFM_g-13" value="" style="edgeStyle=orthogonalEdgeStyle;rounded=0;orthogonalLoop=1;jettySize=auto;html=1;" edge="1" parent="1" source="DmJgV8g3n5MHpVQbFM_g-4" target="DmJgV8g3n5MHpVQbFM_g-12">
          <mxGeometry relative="1" as="geometry">
            <Array as="points">
              <mxPoint x="280" y="250" />
              <mxPoint x="20" y="250" />
              <mxPoint x="20" y="570" />
              <mxPoint x="180" y="570" />
            </Array>
          </mxGeometry>
        </mxCell>
        <mxCell id="DmJgV8g3n5MHpVQbFM_g-4" value="CONQUISTAS&lt;div&gt;&lt;br&gt;&lt;/div&gt;" style="text;html=1;align=center;verticalAlign=middle;whiteSpace=wrap;rounded=0;" vertex="1" parent="1">
          <mxGeometry x="250" y="210" width="60" height="30" as="geometry" />
        </mxCell>
        <mxCell id="DmJgV8g3n5MHpVQbFM_g-5" value="HABILIDADES&lt;div&gt;&lt;br&gt;&lt;/div&gt;" style="text;html=1;align=center;verticalAlign=middle;whiteSpace=wrap;rounded=0;" vertex="1" parent="1">
          <mxGeometry x="480" y="210" width="60" height="30" as="geometry" />
        </mxCell>
        <mxCell id="DmJgV8g3n5MHpVQbFM_g-6" value="OBJETIVOS&lt;div&gt;&lt;br&gt;&lt;/div&gt;" style="text;html=1;align=center;verticalAlign=middle;whiteSpace=wrap;rounded=0;" vertex="1" parent="1">
          <mxGeometry x="370" y="210" width="60" height="30" as="geometry" />
        </mxCell>
        <mxCell id="DmJgV8g3n5MHpVQbFM_g-8" value="" style="ellipse;whiteSpace=wrap;html=1;aspect=fixed;" vertex="1" parent="1">
          <mxGeometry x="40" y="252.5" width="220" height="220" as="geometry" />
        </mxCell>
        <mxCell id="DmJgV8g3n5MHpVQbFM_g-9" value="FOTO&lt;div&gt;&lt;br&gt;&lt;/div&gt;" style="text;html=1;align=center;verticalAlign=middle;whiteSpace=wrap;rounded=0;" vertex="1" parent="1">
          <mxGeometry x="120" y="350" width="60" height="30" as="geometry" />
        </mxCell>
        <mxCell id="DmJgV8g3n5MHpVQbFM_g-10" value="&lt;h1 style=&quot;margin-top: 0px;&quot;&gt;FALANDO SOBRE MIM&lt;/h1&gt;&lt;div&gt;Breve texto&lt;/div&gt;" style="text;html=1;whiteSpace=wrap;overflow=hidden;rounded=0;" vertex="1" parent="1">
          <mxGeometry x="300" y="290" width="410" height="200" as="geometry" />
        </mxCell>
        <mxCell id="DmJgV8g3n5MHpVQbFM_g-11" value="" style="rounded=0;whiteSpace=wrap;html=1;" vertex="1" parent="1">
          <mxGeometry y="1080" width="820" height="89" as="geometry" />
        </mxCell>
        <mxCell id="DmJgV8g3n5MHpVQbFM_g-12" value="&lt;h1 style=&quot;margin-top: 0px;&quot;&gt;Falando sobre o tema que foi escolhido nas opções&lt;/h1&gt;&lt;div&gt;Um breve texto sobre o que foi escolhido, falando sobre habilidades,objetivos,etc&lt;/div&gt;" style="text;html=1;whiteSpace=wrap;overflow=hidden;rounded=0;" vertex="1" parent="1">
          <mxGeometry x="60" y="586" width="740" height="235" as="geometry" />
        </mxCell>
        <mxCell id="DmJgV8g3n5MHpVQbFM_g-16" value="" style="ellipse;whiteSpace=wrap;html=1;aspect=fixed;" vertex="1" parent="1">
          <mxGeometry x="400" y="1090" width="30" height="30" as="geometry" />
        </mxCell>
        <mxCell id="DmJgV8g3n5MHpVQbFM_g-17" value="" style="ellipse;whiteSpace=wrap;html=1;aspect=fixed;" vertex="1" parent="1">
          <mxGeometry x="350" y="1090" width="30" height="30" as="geometry" />
        </mxCell>
        <mxCell id="DmJgV8g3n5MHpVQbFM_g-18" value="" style="ellipse;whiteSpace=wrap;html=1;aspect=fixed;" vertex="1" parent="1">
          <mxGeometry x="450" y="1090" width="30" height="30" as="geometry" />
        </mxCell>
        <mxCell id="DmJgV8g3n5MHpVQbFM_g-20" value="" style="edgeStyle=orthogonalEdgeStyle;rounded=0;orthogonalLoop=1;jettySize=auto;html=1;" edge="1" parent="1" source="DmJgV8g3n5MHpVQbFM_g-19" target="DmJgV8g3n5MHpVQbFM_g-16">
          <mxGeometry relative="1" as="geometry" />
        </mxCell>
        <mxCell id="DmJgV8g3n5MHpVQbFM_g-21" style="edgeStyle=orthogonalEdgeStyle;rounded=0;orthogonalLoop=1;jettySize=auto;html=1;" edge="1" parent="1" source="DmJgV8g3n5MHpVQbFM_g-19" target="DmJgV8g3n5MHpVQbFM_g-17">
          <mxGeometry relative="1" as="geometry" />
        </mxCell>
        <mxCell id="DmJgV8g3n5MHpVQbFM_g-24" style="edgeStyle=orthogonalEdgeStyle;rounded=0;orthogonalLoop=1;jettySize=auto;html=1;" edge="1" parent="1" source="DmJgV8g3n5MHpVQbFM_g-19" target="DmJgV8g3n5MHpVQbFM_g-18">
          <mxGeometry relative="1" as="geometry" />
        </mxCell>
        <mxCell id="DmJgV8g3n5MHpVQbFM_g-19" value="Links" style="text;html=1;align=center;verticalAlign=middle;whiteSpace=wrap;rounded=0;" vertex="1" parent="1">
          <mxGeometry x="380" y="980" width="60" height="30" as="geometry" />
        </mxCell>
        <mxCell id="DmJgV8g3n5MHpVQbFM_g-25" value="Breve texto sobre o direitos do site,etc" style="text;html=1;align=center;verticalAlign=middle;whiteSpace=wrap;rounded=0;" vertex="1" parent="1">
          <mxGeometry x="280" y="1130" width="270" height="30" as="geometry" />
        </mxCell>
      </root>
    </mxGraphModel>
  </diagram>
</mxfile>
